<svg width="24" height="24" viewBox="0 0 24 24" fill="none" xmlns="http://www.w3.org/2000/svg">
<mask id="mask0_82_276" style="mask-type:alpha" maskUnits="userSpaceOnUse" x="0" y="0" width="24" height="24">
<rect width="24" height="24" fill="#C4C4C4"/>
</mask>
<g mask="url(#mask0_82_276)">
<path d="M6.5 13.5H13.5V12.5H6.5V13.5ZM6.5 10.5H17.5V9.5H6.5V10.5ZM6.5 7.5H17.5V6.5H6.5V7.5ZM3 20.075V4.625C3 4.15833 3.15433 3.77067 3.463 3.462C3.771 3.154 4.15833 3 4.625 3H19.375C19.8417 3 20.2293 3.154 20.538 3.462C20.846 3.77067 21 4.15833 21 4.625V15.375C21 15.8417 20.846 16.2293 20.538 16.538C20.2293 16.846 19.8417 17 19.375 17H6.075L3 20.075ZM4 17.65L5.65 16H19.375C19.5583 16 19.7083 15.9417 19.825 15.825C19.9417 15.7083 20 15.5583 20 15.375V4.625C20 4.44167 19.9417 4.29167 19.825 4.175C19.7083 4.05833 19.5583 4 19.375 4H4.625C4.44167 4 4.29167 4.05833 4.175 4.175C4.05833 4.29167 4 4.44167 4 4.625V17.65ZM4 4.625V15.375C4 15.5583 4 15.7083 4 15.825C4 15.9417 4 16 4 16V17.65V4.625Z" fill="#2B3674"/>
</g>
</svg>
