<svg width="24" height="24" viewBox="0 0 24 24" fill="none" xmlns="http://www.w3.org/2000/svg">
<mask id="mask0_82_264" style="mask-type:alpha" maskUnits="userSpaceOnUse" x="0" y="0" width="24" height="24">
<rect width="24" height="24" fill="#C4C4C4"/>
</mask>
<g mask="url(#mask0_82_264)">
<path d="M19.4748 20.15L13.2248 13.9C12.7248 14.3167 12.1498 14.6417 11.4998 14.875C10.8498 15.1083 10.1998 15.225 9.5498 15.225C7.93314 15.225 6.5708 14.6707 5.4628 13.562C4.35414 12.454 3.7998 11.1 3.7998 9.49999C3.7998 7.89999 4.35414 6.54566 5.4628 5.43699C6.5708 4.32899 7.9248 3.77499 9.5248 3.77499C11.1248 3.77499 12.4831 4.32899 13.5998 5.43699C14.7165 6.54566 15.2748 7.89999 15.2748 9.49999C15.2748 10.2 15.1498 10.875 14.8998 11.525C14.6498 12.175 14.3248 12.725 13.9248 13.175L20.1998 19.45L19.4748 20.15ZM9.5498 14.225C10.8665 14.225 11.9831 13.771 12.8998 12.863C13.8165 11.9543 14.2748 10.8333 14.2748 9.49999C14.2748 8.16666 13.8165 7.04566 12.8998 6.13699C11.9831 5.22899 10.8665 4.77499 9.5498 4.77499C8.21647 4.77499 7.09147 5.22899 6.1748 6.13699C5.25814 7.04566 4.7998 8.16666 4.7998 9.49999C4.7998 10.8333 5.25814 11.9543 6.1748 12.863C7.09147 13.771 8.21647 14.225 9.5498 14.225Z" fill="#2B3674"/>
</g>
</svg>
